<svg xmlns="http://www.w3.org/2000/svg"
     xmlns:xlink="http://www.w3.org/1999/xlink"
     width="500"
     zoomAndPan="magnify"
     viewBox="0 0 375 374.999991"
     height="500"
     preserveAspectRatio="xMidYMid meet"
     version="1.0"><defs><g/><clipPath
        id="6d519e56f4"><path
        d="M 0 68.496094 L 362.25 68.496094 L 362.25 280.746094 L 0 280.746094 Z M 0 68.496094 "
        clip-rule="nonzero"/></clipPath><clipPath
        id="5e58f9e861"><path
        d="M 11.910156 68.496094 L 374.160156 68.496094 L 374.160156 280.746094 L 11.910156 280.746094 Z M 11.910156 68.496094 "
        clip-rule="nonzero"/></clipPath><clipPath
        id="95ed78f8d8"><path
        d="M 164 196 L 262 196 L 262 255 L 164 255 Z M 164 196 "
        clip-rule="nonzero"/></clipPath><clipPath
        id="34150fe5fe"><path
        d="M 102.671875 125.015625 L 261.753906 213.941406 L 210.152344 306.25 L 51.074219 217.320312 Z M 102.671875 125.015625 "
        clip-rule="nonzero"/></clipPath><clipPath
        id="d62fce6f44"><path
        d="M 102.671875 125.015625 L 261.753906 213.941406 L 210.152344 306.25 L 51.074219 217.320312 Z M 102.671875 125.015625 "
        clip-rule="nonzero"/></clipPath><clipPath
        id="9f18376f6c"><path d="M 64 181 L 160 181 L 160 241 L 64 241 Z M 64 181 "
                                                                                                                                                                                                                                                                                        clip-rule="nonzero"/></clipPath><clipPath id="fd762e256d"><path d="M 102.671875 125.015625 L 261.753906 213.941406 L 210.152344 306.25 L 51.074219 217.320312 Z M 102.671875 125.015625 "
                                                                                                                                                                                                                                                                                                                                                                                                              clip-rule="nonzero"/></clipPath><clipPath id="b6e4cd4988"><path d="M 102.671875 125.015625 L 261.753906 213.941406 L 210.152344 306.25 L 51.074219 217.320312 Z M 102.671875 125.015625 " clip-rule="nonzero"/></clipPath></defs><g clip-path="url(#6d519e56f4)"><path fill="#8db0f5" d="M 30.308594 223.984375 C 29.5 223.570312 28.5625 222.972656 27.496094 222.195312 C 26.429688 221.417969 25.34375 220.488281 24.234375 219.402344 C 23.125 218.320312 22.269531 217.414062 21.667969 216.6875 C 21.0625 215.960938 20.457031 215.140625 19.851562 214.222656 C 19.242188 213.304688 18.625 212.304688 18 211.222656 C 17.378906 210.136719 16.804688 208.925781 16.28125 207.585938 C 15.757812 206.246094 15.304688 204.785156 14.917969 203.210938 C 14.53125 201.640625 14.242188 199.925781 14.042969 198.074219 C 13.84375 196.226562 13.765625 194.285156 13.800781 192.253906 C 13.839844 190.222656 14.007812 188.144531 14.300781 186.023438 C 14.597656 183.898438 15.015625 181.8125 15.5625 179.765625 C 16.105469 177.71875 16.757812 175.765625 17.515625 173.902344 C 18.277344 172.039062 19.109375 170.28125 20.019531 168.628906 C 20.929688 166.976562 21.933594 165.460938 23.035156 164.082031 C 24.132812 162.703125 25.359375 161.523438 26.710938 160.542969 C 28.058594 159.5625 29.457031 158.738281 30.898438 158.066406 C 32.339844 157.398438 33.820312 156.898438 35.339844 156.5625 C 36.859375 156.226562 38.34375 156.019531 39.789062 155.941406 C 41.238281 155.859375 42.644531 155.851562 44.007812 155.917969 C 45.371094 155.984375 46.679688 156.089844 47.929688 156.230469 C 49.179688 156.375 50.359375 156.535156 51.464844 156.71875 C 52.574219 156.902344 53.585938 157.066406 54.503906 157.222656 C 55.425781 157.375 56.53125 157.492188 57.832031 157.582031 C 59.128906 157.667969 59.960938 157.078125 60.324219 155.808594 C 60.6875 154.542969 60.738281 153.289062 60.472656 152.050781 C 60.210938 150.816406 59.949219 149.683594 59.683594 148.65625 C 59.421875 147.628906 59.144531 146.523438 58.851562 145.339844 C 58.5625 144.15625 58.28125 142.882812 58.011719 141.523438 C 57.742188 140.164062 57.511719 138.703125 57.320312 137.136719 C 57.132812 135.574219 57.027344 133.921875 57.003906 132.179688 C 56.980469 130.4375 57.054688 128.644531 57.222656 126.800781 C 57.390625 124.957031 57.699219 123.066406 58.152344 121.125 C 58.609375 119.183594 59.191406 117.238281 59.90625 115.289062 C 60.621094 113.335938 61.519531 111.414062 62.597656 109.515625 C 63.675781 107.621094 64.878906 105.78125 66.214844 104.003906 C 67.546875 102.222656 69.046875 100.523438 70.710938 98.902344 C 72.375 97.28125 74.195312 95.757812 76.175781 94.324219 C 78.15625 92.890625 80.265625 91.5625 82.503906 90.34375 C 84.746094 89.121094 87.085938 88.027344 89.523438 87.0625 C 91.964844 86.09375 94.449219 85.257812 96.980469 84.5625 C 99.511719 83.863281 102.074219 83.320312 104.660156 82.9375 C 107.246094 82.554688 109.804688 82.3125 112.332031 82.203125 C 114.863281 82.09375 117.347656 82.144531 119.785156 82.355469 C 122.21875 82.5625 124.558594 82.867188 126.804688 83.265625 C 129.046875 83.664062 131.195312 84.167969 133.246094 84.773438 C 135.300781 85.382812 137.253906 86.082031 139.109375 86.871094 C 140.960938 87.660156 142.703125 88.507812 144.332031 89.414062 C 145.960938 90.320312 147.476562 91.214844 148.875 92.101562 C 150.273438 92.992188 151.578125 93.863281 152.789062 94.726562 C 154 95.585938 155.121094 96.433594 156.15625 97.269531 C 157.1875 98.101562 158.140625 98.917969 159.019531 99.722656 C 159.894531 100.523438 160.695312 101.300781 161.417969 102.058594 C 162.140625 102.816406 162.804688 103.535156 163.417969 104.21875 C 164.03125 104.898438 164.84375 105.71875 165.859375 106.675781 C 166.875 107.636719 167.921875 108.019531 169.003906 107.832031 C 170.085938 107.640625 171.070312 107.132812 171.957031 106.304688 C 172.847656 105.472656 173.632812 104.652344 174.320312 103.835938 C 175.007812 103.019531 175.714844 102.15625 176.445312 101.238281 C 177.175781 100.320312 177.957031 99.359375 178.789062 98.351562 C 179.617188 97.34375 180.515625 96.308594 181.476562 95.238281 C 182.441406 94.167969 183.503906 93.046875 184.671875 91.878906 C 185.839844 90.707031 187.097656 89.519531 188.445312 88.316406 C 189.792969 87.117188 191.226562 85.917969 192.742188 84.726562 C 194.257812 83.535156 195.890625 82.367188 197.648438 81.21875 C 199.402344 80.070312 201.238281 78.972656 203.152344 77.925781 C 205.066406 76.878906 207.035156 75.910156 209.066406 75.011719 C 211.09375 74.117188 213.132812 73.304688 215.183594 72.574219 C 217.230469 71.84375 219.339844 71.203125 221.503906 70.648438 C 223.667969 70.097656 225.867188 69.652344 228.09375 69.308594 C 230.320312 68.964844 232.574219 68.746094 234.847656 68.644531 C 237.121094 68.546875 239.386719 68.5625 241.644531 68.691406 C 243.902344 68.824219 246.152344 69.070312 248.390625 69.441406 C 250.628906 69.808594 252.851562 70.324219 255.058594 70.988281 C 257.269531 71.648438 259.457031 72.441406 261.625 73.363281 C 263.792969 74.289062 265.90625 75.324219 267.960938 76.476562 C 270.015625 77.625 271.992188 78.835938 273.886719 80.117188 C 275.78125 81.394531 277.59375 82.710938 279.316406 84.066406 C 281.042969 85.421875 282.683594 86.796875 284.242188 88.1875 C 285.796875 89.582031 287.246094 90.957031 288.582031 92.316406 C 289.917969 93.679688 291.164062 94.984375 292.320312 96.238281 C 293.476562 97.492188 294.546875 98.710938 295.53125 99.902344 C 296.515625 101.09375 297.40625 102.25 298.210938 103.371094 C 299.011719 104.496094 299.738281 105.585938 300.382812 106.640625 C 301.027344 107.699219 301.605469 108.71875 302.121094 109.699219 C 302.632812 110.679688 303.097656 111.613281 303.511719 112.507812 C 303.929688 113.398438 304.304688 114.242188 304.644531 115.042969 C 304.980469 115.839844 305.40625 116.855469 305.914062 118.089844 C 306.421875 119.324219 307.125 119.96875 308.03125 120.023438 C 308.9375 120.074219 309.746094 119.628906 310.457031 118.683594 C 311.167969 117.734375 311.972656 116.6875 312.875 115.542969 C 313.773438 114.394531 314.828125 113.289062 316.035156 112.21875 C 317.242188 111.152344 318.585938 110.230469 320.0625 109.453125 C 321.542969 108.679688 322.730469 108.1875 323.628906 107.988281 C 324.53125 107.785156 325.484375 107.667969 326.496094 107.640625 C 327.507812 107.609375 328.539062 107.675781 329.585938 107.835938 C 330.636719 107.992188 331.710938 108.242188 332.816406 108.585938 C 333.917969 108.925781 335.042969 109.371094 336.183594 109.921875 C 337.324219 110.46875 338.449219 111.101562 339.558594 111.816406 C 340.667969 112.527344 341.746094 113.296875 342.792969 114.125 C 343.839844 114.953125 344.871094 115.851562 345.878906 116.820312 C 346.890625 117.789062 347.878906 118.804688 348.847656 119.867188 C 349.8125 120.929688 350.753906 122.066406 351.667969 123.269531 C 352.585938 124.476562 353.492188 125.785156 354.394531 127.199219 C 355.296875 128.609375 356.140625 130.125 356.929688 131.742188 C 357.714844 133.359375 358.457031 135.050781 359.152344 136.820312 C 359.847656 138.589844 360.472656 140.433594 361.023438 142.351562 C 361.578125 144.269531 361.953125 146.277344 362.148438 148.375 C 362.347656 150.472656 362.421875 152.644531 362.371094 154.886719 C 362.324219 157.132812 362.171875 159.386719 361.910156 161.652344 C 361.648438 163.917969 361.300781 166.164062 360.867188 168.382812 C 360.429688 170.605469 359.867188 172.800781 359.171875 174.96875 C 358.480469 177.136719 357.683594 179.257812 356.785156 181.332031 C 355.886719 183.40625 354.875 185.417969 353.746094 187.371094 C 352.617188 189.328125 351.414062 191.195312 350.132812 192.976562 C 348.855469 194.757812 347.5 196.457031 346.070312 198.082031 C 344.640625 199.703125 343.167969 201.230469 341.648438 202.664062 C 340.128906 204.097656 338.65625 205.433594 337.226562 206.671875 C 335.800781 207.910156 334.410156 209.0625 333.054688 210.125 C 331.703125 211.191406 330.394531 212.179688 329.132812 213.097656 C 327.875 214.011719 326.65625 214.859375 325.480469 215.636719 C 324.304688 216.414062 323.179688 217.132812 322.105469 217.789062 C 321.03125 218.445312 320.003906 219.054688 319.023438 219.617188 C 318.042969 220.175781 317.113281 220.699219 316.234375 221.183594 C 315.355469 221.667969 314.527344 222.109375 313.75 222.507812 C 312.972656 222.90625 312.007812 223.429688 310.847656 224.078125 C 309.691406 224.722656 308.742188 225.496094 308.003906 226.394531 C 307.261719 227.289062 306.96875 228.390625 307.121094 229.691406 C 307.269531 230.996094 307.503906 232.242188 307.816406 233.4375 C 308.128906 234.632812 308.425781 236.015625 308.707031 237.582031 C 308.992188 239.152344 309.179688 240.390625 309.269531 241.296875 C 309.363281 242.203125 309.414062 243.160156 309.425781 244.171875 C 309.433594 245.179688 309.375 246.222656 309.253906 247.292969 C 309.128906 248.363281 308.925781 249.445312 308.648438 250.535156 C 308.371094 251.625 308.011719 252.71875 307.574219 253.8125 C 307.132812 254.90625 306.570312 256 305.882812 257.097656 C 305.195312 258.191406 304.375 259.300781 303.421875 260.421875 C 302.46875 261.546875 301.398438 262.644531 300.214844 263.722656 C 299.027344 264.800781 297.765625 265.84375 296.421875 266.851562 C 295.074219 267.855469 293.640625 268.824219 292.113281 269.757812 C 290.582031 270.6875 288.964844 271.574219 287.253906 272.417969 C 285.546875 273.257812 283.765625 274.046875 281.910156 274.78125 C 280.058594 275.519531 278.144531 276.199219 276.164062 276.820312 C 274.1875 277.441406 272.160156 278.003906 270.085938 278.503906 C 268.007812 279 265.871094 279.414062 263.671875 279.738281 C 261.476562 280.0625 259.25 280.324219 256.992188 280.515625 C 254.738281 280.707031 252.46875 280.820312 250.183594 280.847656 C 247.898438 280.878906 245.636719 280.84375 243.402344 280.742188 C 241.167969 280.640625 238.953125 280.480469 236.761719 280.261719 C 234.574219 280.039062 232.394531 279.746094 230.226562 279.382812 C 228.058594 279.019531 225.941406 278.605469 223.875 278.136719 C 221.804688 277.667969 219.789062 277.15625 217.828125 276.601562 C 215.867188 276.046875 213.972656 275.460938 212.148438 274.839844 C 210.320312 274.21875 208.554688 273.585938 206.847656 272.9375 C 205.144531 272.289062 203.515625 271.628906 201.972656 270.960938 C 200.429688 270.292969 198.96875 269.632812 197.597656 268.972656 C 196.222656 268.3125 194.929688 267.679688 193.714844 267.070312 C 192.503906 266.460938 191.367188 265.875 190.3125 265.308594 C 189.253906 264.742188 188.253906 264.195312 187.316406 263.660156 C 186.378906 263.128906 185.503906 262.644531 184.699219 262.210938 C 183.890625 261.777344 182.816406 261.269531 181.476562 260.6875 C 180.132812 260.105469 178.902344 259.753906 177.785156 259.628906 C 176.671875 259.503906 175.546875 259.617188 174.421875 259.964844 C 173.292969 260.308594 172.21875 260.765625 171.199219 261.324219 C 170.183594 261.886719 169.265625 262.417969 168.449219 262.910156 C 167.628906 263.40625 166.738281 263.929688 165.777344 264.480469 C 164.8125 265.035156 163.761719 265.605469 162.617188 266.191406 C 161.472656 266.777344 160.226562 267.367188 158.875 267.964844 C 157.527344 268.5625 156.085938 269.148438 154.550781 269.71875 C 153.015625 270.289062 151.410156 270.839844 149.738281 271.371094 C 148.066406 271.902344 146.292969 272.390625 144.417969 272.835938 C 142.542969 273.28125 140.570312 273.6875 138.503906 274.050781 C 136.4375 274.414062 134.300781 274.699219 132.097656 274.90625 C 129.890625 275.113281 127.667969 275.257812 125.429688 275.339844 C 123.195312 275.421875 120.933594 275.453125 118.648438 275.425781 C 116.363281 275.398438 114.085938 275.304688 111.808594 275.140625 C 109.535156 274.976562 107.273438 274.761719 105.03125 274.492188 C 102.785156 274.226562 100.589844 273.921875 98.445312 273.578125 C 96.296875 273.238281 94.222656 272.878906 92.21875 272.5 C 90.214844 272.117188 88.285156 271.714844 86.425781 271.289062 C 84.566406 270.859375 82.785156 270.425781 81.078125 269.984375 C 79.371094 269.542969 77.757812 269.070312 76.242188 268.570312 C 74.726562 268.070312 73.316406 267.554688 72.015625 267.027344 C 70.714844 266.496094 69.523438 265.917969 68.445312 265.300781 C 67.367188 264.683594 66.398438 264.023438 65.539062 263.324219 C 64.683594 262.628906 63.933594 261.910156 63.289062 261.171875 C 62.644531 260.433594 62.089844 259.683594 61.621094 258.925781 C 61.15625 258.167969 60.738281 257.101562 60.371094 255.730469 C 60.003906 254.363281 59.902344 253.164062 60.0625 252.132812 C 60.226562 251.105469 60.769531 250.230469 61.691406 249.511719 C 62.609375 248.792969 63.578125 248.507812 64.589844 248.664062 C 65.601562 248.820312 65.710938 249.140625 64.910156 249.632812 C 64.109375 250.121094 63.046875 250.523438 61.722656 250.839844 C 60.398438 251.152344 59.136719 251.421875 57.941406 251.644531 C 56.746094 251.867188 55.449219 252.074219 54.042969 252.265625 C 52.640625 252.453125 51.140625 252.632812 49.539062 252.800781 C 47.941406 252.96875 46.289062 253.082031 44.578125 253.132812 C 42.871094 253.183594 41.152344 253.191406 39.425781 253.152344 C 37.699219 253.113281 35.972656 253.023438 34.238281 252.878906 C 32.507812 252.734375 30.808594 252.535156 29.136719 252.28125 C 27.46875 252.023438 25.855469 251.730469 24.296875 251.402344 C 22.742188 251.070312 21.257812 250.722656 19.839844 250.351562 C 18.421875 249.984375 17.070312 249.597656 15.777344 249.195312 C 14.484375 248.796875 13.257812 248.363281 12.09375 247.894531 C 10.933594 247.425781 9.851562 246.878906 8.847656 246.261719 C 7.847656 245.640625 6.953125 244.929688 6.160156 244.128906 C 5.371094 243.324219 4.648438 242.46875 4 241.558594 C 3.351562 240.652344 2.789062 239.683594 2.3125 238.65625 C 1.839844 237.628906 1.441406 236.554688 1.117188 235.433594 C 0.792969 234.3125 0.539062 233.164062 0.359375 231.984375 C 0.179688 230.800781 0.0742188 229.609375 0.0429688 228.410156 C 0.015625 227.207031 0.0703125 225.992188 0.210938 224.761719 C 0.347656 223.53125 0.597656 222.304688 0.953125 221.078125 C 1.308594 219.851562 1.757812 218.609375 2.308594 217.351562 C 2.855469 216.09375 3.550781 214.84375 4.386719 213.597656 C 5.226562 212.355469 6.160156 211.128906 7.191406 209.917969 C 8.222656 208.710938 9.375 207.519531 10.648438 206.351562 C 11.917969 205.179688 13.320312 204.019531 14.851562 202.863281 C 16.382812 201.707031 18.050781 200.59375 19.855469 199.523438 C 21.660156 198.457031 23.5625 197.433594 25.558594 196.460938 C 27.550781 195.488281 29.625 194.550781 31.777344 193.652344 C 33.929688 192.753906 36.183594 191.898438 38.535156 191.082031 C 40.890625 190.265625 43.332031 189.496094 45.867188 188.777344 C 48.398438 188.054688 51.027344 187.382812 53.75 186.757812 C 56.472656 186.132812 59.238281 185.554688 62.046875 185.027344 C 64.855469 184.496094 67.757812 184.003906 70.75 183.546875 Z M 30.308594 223.984375 " fill-opacity="1" fill-rule="nonzero"/></g><g clip-path="url(#5e58f9e861)"><path fill="#b1c7f3" d="M 42.203125 223.882812 C 41.394531 223.46875 40.457031 222.871094 39.390625 222.09375 C 38.328125 221.316406 37.242188 220.386719 36.132812 219.304688 C 35.023438 218.21875 34.167969 217.316406 33.566406 216.589844 C 32.964844 215.863281 32.359375 215.042969 31.75 214.125 C 31.144531 213.207031 30.527344 212.210938 29.902344 211.125 C 29.28125 210.042969 28.707031 208.832031 28.183594 207.492188 C 27.660156 206.152344 27.207031 204.695312 26.820312 203.125 C 26.4375 201.550781 26.144531 199.839844 25.945312 197.988281 C 25.746094 196.140625 25.667969 194.199219 25.707031 192.171875 C 25.742188 190.144531 25.910156 188.066406 26.203125 185.945312 C 26.5 183.820312 26.921875 181.738281 27.464844 179.691406 C 28.011719 177.648438 28.660156 175.695312 29.417969 173.832031 C 30.175781 171.96875 31.011719 170.210938 31.917969 168.5625 C 32.828125 166.910156 33.832031 165.394531 34.933594 164.019531 C 36.03125 162.640625 37.257812 161.460938 38.605469 160.480469 C 39.953125 159.5 41.351562 158.675781 42.792969 158.007812 C 44.234375 157.339844 45.714844 156.839844 47.230469 156.503906 C 48.75 156.167969 50.230469 155.960938 51.679688 155.882812 C 53.125 155.800781 54.53125 155.796875 55.894531 155.859375 C 57.257812 155.925781 58.5625 156.03125 59.8125 156.171875 C 61.0625 156.316406 62.242188 156.480469 63.347656 156.660156 C 64.457031 156.84375 65.46875 157.007812 66.386719 157.160156 C 67.304688 157.316406 68.410156 157.433594 69.707031 157.523438 C 71.007812 157.609375 71.835938 157.019531 72.199219 155.753906 C 72.5625 154.484375 72.613281 153.234375 72.351562 151.996094 C 72.089844 150.761719 71.824219 149.628906 71.5625 148.601562 C 71.296875 147.574219 71.023438 146.46875 70.730469 145.289062 C 70.441406 144.105469 70.160156 142.835938 69.890625 141.476562 C 69.621094 140.117188 69.390625 138.65625 69.199219 137.09375 C 69.011719 135.527344 68.90625 133.875 68.882812 132.136719 C 68.859375 130.394531 68.933594 128.605469 69.097656 126.761719 C 69.265625 124.921875 69.578125 123.03125 70.03125 121.089844 C 70.484375 119.148438 71.070312 117.207031 71.785156 115.257812 C 72.5 113.308594 73.394531 111.386719 74.472656 109.488281 C 75.550781 107.59375 76.753906 105.757812 78.089844 103.980469 C 79.421875 102.199219 80.917969 100.503906 82.582031 98.882812 C 84.242188 97.265625 86.0625 95.738281 88.042969 94.304688 C 90.019531 92.875 92.128906 91.546875 94.367188 90.328125 C 96.609375 89.109375 98.945312 88.015625 101.382812 87.046875 C 103.824219 86.082031 106.308594 85.25 108.835938 84.550781 C 111.367188 83.851562 113.925781 83.3125 116.511719 82.929688 C 119.09375 82.546875 121.652344 82.300781 124.179688 82.195312 C 126.707031 82.085938 129.191406 82.136719 131.625 82.34375 C 134.0625 82.554688 136.398438 82.859375 138.640625 83.253906 C 140.882812 83.652344 143.03125 84.15625 145.082031 84.765625 C 147.136719 85.371094 149.085938 86.070312 150.9375 86.859375 C 152.789062 87.648438 154.53125 88.496094 156.160156 89.402344 C 157.789062 90.304688 159.300781 91.203125 160.699219 92.085938 C 162.097656 92.972656 163.402344 93.847656 164.613281 94.710938 C 165.824219 95.570312 166.945312 96.417969 167.976562 97.25 C 169.007812 98.082031 169.960938 98.898438 170.839844 99.699219 C 171.714844 100.5 172.511719 101.28125 173.234375 102.035156 C 173.957031 102.792969 174.625 103.511719 175.234375 104.195312 C 175.847656 104.875 176.660156 105.695312 177.675781 106.652344 C 178.691406 107.609375 179.738281 107.992188 180.816406 107.804688 C 181.898438 107.617188 182.882812 107.105469 183.769531 106.277344 C 184.65625 105.449219 185.445312 104.625 186.132812 103.8125 C 186.816406 102.996094 187.527344 102.132812 188.257812 101.214844 C 188.988281 100.300781 189.765625 99.339844 190.59375 98.332031 C 191.425781 97.328125 192.320312 96.289062 193.285156 95.21875 C 194.246094 94.152344 195.3125 93.03125 196.476562 91.863281 C 197.644531 90.691406 198.902344 89.507812 200.25 88.304688 C 201.59375 87.105469 203.027344 85.910156 204.539062 84.71875 C 206.054688 83.527344 207.691406 82.355469 209.445312 81.210938 C 211.199219 80.0625 213.03125 78.964844 214.945312 77.921875 C 216.855469 76.875 218.828125 75.902344 220.855469 75.007812 C 222.882812 74.113281 224.921875 73.300781 226.96875 72.570312 C 229.015625 71.839844 231.121094 71.199219 233.285156 70.648438 C 235.453125 70.097656 237.648438 69.652344 239.875 69.308594 C 242.101562 68.964844 244.351562 68.746094 246.621094 68.644531 C 248.894531 68.546875 251.160156 68.5625 253.417969 68.691406 C 255.671875 68.820312 257.921875 69.070312 260.15625 69.441406 C 262.394531 69.808594 264.617188 70.324219 266.824219 70.984375 C 269.03125 71.644531 271.21875 72.4375 273.386719 73.363281 C 275.554688 74.285156 277.664062 75.320312 279.71875 76.46875 C 281.773438 77.617188 283.746094 78.832031 285.640625 80.109375 C 287.535156 81.386719 289.34375 82.703125 291.066406 84.054688 C 292.792969 85.410156 294.429688 86.785156 295.988281 88.175781 C 297.542969 89.566406 298.988281 90.941406 300.324219 92.300781 C 301.660156 93.660156 302.90625 94.96875 304.0625 96.21875 C 305.21875 97.472656 306.289062 98.691406 307.269531 99.882812 C 308.253906 101.070312 309.144531 102.226562 309.949219 103.347656 C 310.75 104.46875 311.476562 105.558594 312.121094 106.617188 C 312.765625 107.671875 313.34375 108.691406 313.855469 109.671875 C 314.371094 110.652344 314.832031 111.585938 315.25 112.476562 C 315.664062 113.367188 316.039062 114.210938 316.378906 115.011719 C 316.714844 115.808594 317.140625 116.824219 317.648438 118.058594 C 318.152344 119.289062 318.859375 119.933594 319.765625 119.988281 C 320.667969 120.042969 321.476562 119.597656 322.1875 118.648438 C 322.898438 117.703125 323.703125 116.65625 324.601562 115.511719 C 325.503906 114.363281 326.554688 113.257812 327.761719 112.191406 C 328.96875 111.125 330.3125 110.203125 331.789062 109.429688 C 333.265625 108.652344 334.457031 108.164062 335.355469 107.960938 C 336.253906 107.757812 337.207031 107.640625 338.21875 107.613281 C 339.230469 107.585938 340.257812 107.648438 341.308594 107.808594 C 342.355469 107.96875 343.429688 108.21875 344.535156 108.558594 C 345.636719 108.898438 346.757812 109.34375 347.898438 109.894531 C 349.039062 110.441406 350.164062 111.074219 351.273438 111.785156 C 352.378906 112.5 353.457031 113.269531 354.503906 114.09375 C 355.550781 114.921875 356.582031 115.820312 357.589844 116.789062 C 358.601562 117.757812 359.589844 118.773438 360.554688 119.835938 C 361.519531 120.894531 362.460938 122.027344 363.375 123.234375 C 364.292969 124.4375 365.199219 125.746094 366.101562 127.160156 C 367.003906 128.570312 367.847656 130.082031 368.632812 131.699219 C 369.417969 133.316406 370.160156 135.007812 370.855469 136.777344 C 371.550781 138.546875 372.171875 140.386719 372.726562 142.304688 C 373.277344 144.21875 373.652344 146.226562 373.851562 148.324219 C 374.046875 150.417969 374.121094 152.589844 374.074219 154.832031 C 374.027344 157.074219 373.871094 159.328125 373.609375 161.59375 C 373.351562 163.855469 373.003906 166.097656 372.566406 168.320312 C 372.132812 170.539062 371.570312 172.730469 370.875 174.898438 C 370.183594 177.0625 369.386719 179.183594 368.488281 181.257812 C 367.59375 183.328125 366.582031 185.339844 365.453125 187.292969 C 364.324219 189.246094 363.121094 191.113281 361.84375 192.894531 C 360.5625 194.671875 359.207031 196.375 357.78125 197.996094 C 356.351562 199.617188 354.878906 201.144531 353.363281 202.578125 C 351.84375 204.007812 350.371094 205.34375 348.945312 206.582031 C 347.515625 207.820312 346.125 208.96875 344.773438 210.03125 C 343.421875 211.097656 342.113281 212.085938 340.855469 213 C 339.59375 213.914062 338.378906 214.761719 337.203125 215.539062 C 336.027344 216.316406 334.902344 217.035156 333.828125 217.691406 C 332.757812 218.347656 331.730469 218.957031 330.75 219.515625 C 329.769531 220.078125 328.84375 220.597656 327.964844 221.082031 C 327.085938 221.566406 326.257812 222.007812 325.480469 222.40625 C 324.703125 222.804688 323.734375 223.328125 322.578125 223.972656 C 321.421875 224.621094 320.476562 225.390625 319.734375 226.289062 C 318.996094 227.1875 318.699219 228.285156 318.851562 229.585938 C 319.003906 230.886719 319.234375 232.136719 319.546875 233.328125 C 319.859375 234.523438 320.15625 235.902344 320.441406 237.472656 C 320.722656 239.039062 320.910156 240.277344 321.003906 241.179688 C 321.097656 242.085938 321.148438 243.042969 321.15625 244.054688 C 321.164062 245.066406 321.109375 246.105469 320.984375 247.175781 C 320.859375 248.246094 320.660156 249.324219 320.382812 250.414062 C 320.101562 251.503906 319.746094 252.597656 319.304688 253.691406 C 318.867188 254.78125 318.304688 255.875 317.617188 256.972656 C 316.929688 258.066406 316.109375 259.175781 315.15625 260.296875 C 314.203125 261.417969 313.132812 262.515625 311.949219 263.59375 C 310.765625 264.671875 309.503906 265.714844 308.160156 266.71875 C 306.816406 267.726562 305.378906 268.691406 303.851562 269.625 C 302.324219 270.554688 300.707031 271.441406 299 272.28125 C 297.289062 273.121094 295.511719 273.910156 293.660156 274.644531 C 291.808594 275.382812 289.894531 276.058594 287.917969 276.683594 C 285.941406 277.304688 283.914062 277.863281 281.839844 278.363281 C 279.761719 278.863281 277.628906 279.273438 275.429688 279.597656 C 273.234375 279.925781 271.011719 280.183594 268.757812 280.375 C 266.5 280.566406 264.234375 280.679688 261.949219 280.707031 C 259.664062 280.738281 257.40625 280.703125 255.171875 280.601562 C 252.9375 280.5 250.726562 280.339844 248.535156 280.121094 C 246.347656 279.898438 244.171875 279.609375 242.003906 279.246094 C 239.839844 278.878906 237.722656 278.464844 235.65625 277.996094 C 233.589844 277.53125 231.574219 277.019531 229.613281 276.464844 C 227.652344 275.910156 225.757812 275.324219 223.933594 274.703125 C 222.109375 274.085938 220.347656 273.449219 218.640625 272.800781 C 216.933594 272.152344 215.3125 271.496094 213.765625 270.828125 C 212.222656 270.160156 210.765625 269.5 209.394531 268.839844 C 208.019531 268.179688 206.730469 267.546875 205.515625 266.9375 C 204.304688 266.332031 203.167969 265.746094 202.113281 265.179688 C 201.054688 264.613281 200.058594 264.066406 199.121094 263.53125 C 198.179688 263 197.308594 262.515625 196.503906 262.085938 C 195.699219 261.652344 194.625 261.144531 193.28125 260.5625 C 191.9375 259.980469 190.710938 259.625 189.59375 259.503906 C 188.480469 259.378906 187.359375 259.492188 186.230469 259.835938 C 185.105469 260.183594 184.03125 260.636719 183.011719 261.199219 C 181.996094 261.761719 181.078125 262.289062 180.261719 262.78125 C 179.445312 263.277344 178.554688 263.796875 177.59375 264.351562 C 176.628906 264.90625 175.578125 265.472656 174.433594 266.058594 C 173.289062 266.644531 172.042969 267.234375 170.695312 267.832031 C 169.347656 268.429688 167.90625 269.015625 166.371094 269.585938 C 164.839844 270.15625 163.234375 270.707031 161.566406 271.234375 C 159.894531 271.765625 158.121094 272.253906 156.246094 272.699219 C 154.371094 273.144531 152.402344 273.550781 150.335938 273.914062 C 148.269531 274.277344 146.136719 274.5625 143.929688 274.769531 C 141.726562 274.976562 139.503906 275.121094 137.269531 275.203125 C 135.035156 275.285156 132.777344 275.3125 130.492188 275.289062 C 128.207031 275.261719 125.929688 275.167969 123.65625 275.003906 C 121.382812 274.839844 119.125 274.625 116.882812 274.355469 C 114.636719 274.089844 112.445312 273.785156 110.300781 273.445312 C 108.15625 273.101562 106.082031 272.742188 104.078125 272.363281 C 102.074219 271.984375 100.144531 271.582031 98.289062 271.152344 C 96.429688 270.726562 94.648438 270.292969 92.941406 269.851562 C 91.234375 269.410156 89.625 268.9375 88.109375 268.4375 C 86.59375 267.941406 85.1875 267.425781 83.886719 266.894531 C 82.585938 266.363281 81.394531 265.789062 80.316406 265.171875 C 79.238281 264.550781 78.269531 263.894531 77.414062 263.195312 C 76.554688 262.5 75.804688 261.78125 75.164062 261.042969 C 74.519531 260.304688 73.964844 259.558594 73.5 258.796875 C 73.03125 258.039062 72.613281 256.976562 72.246094 255.609375 C 71.878906 254.238281 71.777344 253.039062 71.941406 252.011719 C 72.105469 250.984375 72.644531 250.109375 73.566406 249.390625 C 74.488281 248.671875 75.453125 248.390625 76.464844 248.542969 C 77.476562 248.699219 77.582031 249.023438 76.785156 249.511719 C 75.984375 250 74.921875 250.402344 73.597656 250.71875 C 72.273438 251.03125 71.015625 251.300781 69.820312 251.523438 C 68.625 251.746094 67.328125 251.953125 65.925781 252.140625 C 64.523438 252.332031 63.023438 252.511719 61.421875 252.679688 C 59.824219 252.847656 58.171875 252.957031 56.464844 253.011719 C 54.757812 253.0625 53.039062 253.066406 51.316406 253.03125 C 49.589844 252.992188 47.863281 252.898438 46.132812 252.757812 C 44.402344 252.613281 42.703125 252.414062 41.03125 252.15625 C 39.363281 251.902344 37.75 251.609375 36.195312 251.28125 C 34.640625 250.949219 33.15625 250.601562 31.742188 250.230469 C 30.324219 249.863281 28.972656 249.476562 27.679688 249.078125 C 26.386719 248.675781 25.160156 248.242188 24 247.773438 C 22.839844 247.304688 21.757812 246.761719 20.757812 246.144531 C 19.753906 245.523438 18.859375 244.8125 18.070312 244.011719 C 17.277344 243.207031 16.558594 242.351562 15.910156 241.445312 C 15.261719 240.539062 14.699219 239.570312 14.222656 238.542969 C 13.75 237.519531 13.351562 236.445312 13.027344 235.324219 C 12.703125 234.203125 12.453125 233.054688 12.269531 231.875 C 12.089844 230.695312 11.984375 229.503906 11.957031 228.304688 C 11.925781 227.101562 11.980469 225.886719 12.121094 224.65625 C 12.261719 223.429688 12.507812 222.203125 12.863281 220.976562 C 13.21875 219.75 13.667969 218.511719 14.21875 217.253906 C 14.765625 215.996094 15.457031 214.746094 16.296875 213.5 C 17.132812 212.257812 18.070312 211.03125 19.097656 209.824219 C 20.128906 208.617188 21.28125 207.429688 22.550781 206.257812 C 23.824219 205.089844 25.222656 203.929688 26.753906 202.773438 C 28.285156 201.617188 29.953125 200.507812 31.757812 199.4375 C 33.5625 198.367188 35.460938 197.347656 37.453125 196.375 C 39.449219 195.402344 41.519531 194.46875 43.671875 193.570312 C 45.820312 192.671875 48.074219 191.816406 50.425781 191 C 52.777344 190.1875 55.21875 189.417969 57.75 188.695312 C 60.28125 187.976562 62.910156 187.304688 65.628906 186.679688 C 68.351562 186.054688 71.117188 185.476562 73.921875 184.949219 C 76.730469 184.421875 79.628906 183.929688 82.621094 183.46875 Z M 42.203125 223.882812 " fill-opacity="1" fill-rule="nonzero"/></g><g clip-path="url(#95ed78f8d8)"><g clip-path="url(#34150fe5fe)"><g clip-path="url(#d62fce6f44)"><path fill="#ffffff" d="M 261.0625 214.570312 C 261.105469 214.4375 261.078125 214.304688 261.019531 214.183594 C 261.054688 214.128906 261.085938 214.078125 261.105469 214.019531 C 261.125 213.96875 261.136719 213.917969 261.136719 213.863281 C 261.136719 213.859375 261.136719 213.859375 261.136719 213.851562 C 261.132812 213.855469 261.132812 213.855469 261.132812 213.859375 C 261.132812 213.78125 261.109375 213.699219 261.066406 213.632812 C 261.070312 213.632812 261.070312 213.632812 261.074219 213.636719 C 261.070312 213.632812 261.070312 213.632812 261.070312 213.628906 C 261.039062 213.578125 261.003906 213.542969 260.960938 213.511719 C 260.890625 213.453125 260.8125 213.402344 260.714844 213.378906 C 260.695312 213.375 260.664062 213.371094 260.640625 213.367188 C 260.566406 213.316406 260.484375 213.28125 260.390625 213.269531 C 259.882812 213.199219 259.375 213.203125 258.878906 213.242188 C 258.464844 213.140625 258.046875 213.039062 257.628906 212.929688 C 256.632812 212.664062 255.644531 212.359375 254.664062 212.039062 C 252.671875 211.398438 250.683594 210.785156 248.652344 210.273438 C 246.667969 209.769531 244.699219 209.203125 242.726562 208.683594 C 240.730469 208.160156 238.730469 207.742188 236.710938 207.359375 C 234.667969 206.96875 232.636719 206.539062 230.609375 206.070312 C 228.589844 205.609375 226.582031 205.082031 224.546875 204.667969 C 220.578125 203.863281 216.539062 203.542969 212.519531 203.058594 C 204.410156 202.085938 196.410156 200.402344 188.359375 199.027344 C 184.320312 198.339844 180.269531 197.617188 176.183594 197.289062 C 175.15625 197.207031 174.148438 197.152344 173.140625 196.945312 C 172.765625 196.867188 172.390625 196.777344 172.027344 196.660156 C 171.730469 196.566406 171.417969 196.445312 171.097656 196.445312 C 169.324219 196.449219 170.152344 199.289062 170.40625 200.25 C 170.617188 201.03125 170.867188 201.828125 170.929688 202.640625 C 171.003906 203.601562 170.941406 204.582031 170.949219 205.546875 C 170.960938 207.5 171.011719 209.460938 171.1875 211.40625 C 171.355469 213.300781 171.761719 215.164062 171.863281 217.066406 C 171.910156 217.886719 171.820312 218.667969 171.746094 219.480469 C 171.695312 220.015625 171.777344 220.628906 172.085938 221.09375 C 172.023438 221.214844 171.984375 221.359375 171.945312 221.476562 C 171.847656 221.765625 171.792969 222.0625 171.722656 222.363281 C 171.570312 223.035156 171.449219 223.714844 171.25 224.382812 C 170.957031 225.394531 170.585938 226.382812 170.265625 227.386719 C 169.945312 228.402344 169.652344 229.433594 169.367188 230.457031 C 168.792969 232.503906 168.230469 234.5625 167.664062 236.609375 C 167.097656 238.648438 166.550781 240.695312 166.113281 242.765625 C 165.621094 245.09375 165.183594 247.429688 164.597656 249.734375 C 164.453125 250.292969 165.222656 250.777344 165.621094 250.308594 C 165.621094 250.308594 165.625 250.300781 165.625 250.300781 C 166.445312 250.183594 167.25 249.902344 168.039062 249.660156 C 168.902344 249.394531 169.761719 249.121094 170.617188 248.839844 C 172.324219 248.277344 174.027344 247.675781 175.730469 247.085938 C 179.113281 245.898438 182.5 244.679688 185.953125 243.710938 C 186.855469 243.453125 187.757812 243.1875 188.664062 242.9375 C 189.101562 242.824219 189.542969 242.714844 189.988281 242.628906 C 190.199219 242.589844 190.410156 242.550781 190.625 242.527344 C 190.707031 242.515625 190.839844 242.5 190.960938 242.480469 C 191.183594 242.671875 191.402344 242.863281 191.628906 243.046875 C 193.449219 244.554688 195.382812 245.941406 197.269531 247.371094 C 199.175781 248.816406 201.109375 250.238281 202.957031 251.757812 C 203.390625 252.113281 203.859375 252.460938 204.242188 252.875 C 204.492188 253.140625 204.714844 253.429688 204.953125 253.707031 C 205.40625 254.234375 206.144531 255.089844 206.933594 254.796875 C 207.0625 254.75 207.164062 254.667969 207.25 254.578125 C 207.316406 254.546875 207.382812 254.519531 207.449219 254.488281 C 207.652344 254.425781 207.847656 254.265625 208.007812 254.15625 C 208.234375 254.007812 208.457031 253.859375 208.679688 253.714844 C 209.230469 253.34375 209.769531 252.96875 210.304688 252.578125 C 211.535156 251.695312 212.753906 250.804688 213.96875 249.910156 C 214.816406 249.285156 215.6875 248.695312 216.527344 248.054688 C 218.40625 246.621094 220.289062 245.1875 222.199219 243.796875 C 224.445312 242.15625 226.6875 240.515625 228.835938 238.753906 C 231 236.984375 233.292969 235.382812 235.484375 233.652344 C 237.578125 232.003906 239.9375 230.742188 242.160156 229.277344 C 244.421875 227.777344 246.542969 226.066406 248.652344 224.355469 C 250.761719 222.644531 252.859375 220.925781 254.992188 219.238281 C 255.875 218.539062 256.75 217.886719 257.757812 217.386719 C 258.648438 216.945312 259.609375 216.449219 260.328125 215.753906 C 260.675781 215.410156 260.921875 215.027344 261.0625 214.570312 Z M 173.109375 218.191406 C 173.214844 216.320312 172.828125 214.484375 172.597656 212.636719 C 172.359375 210.753906 172.28125 208.855469 172.253906 206.960938 C 172.226562 205.15625 172.382812 203.265625 171.996094 201.492188 C 171.824219 200.707031 171.570312 199.941406 171.386719 199.152344 C 171.304688 198.808594 171.246094 198.457031 171.226562 198.105469 C 171.222656 198.035156 171.25 197.835938 171.25 197.703125 C 171.472656 197.78125 171.738281 197.832031 171.960938 197.890625 C 172.410156 198.023438 172.867188 198.117188 173.328125 198.207031 C 174.28125 198.394531 175.25 198.441406 176.210938 198.539062 C 180.191406 198.917969 184.128906 199.589844 188.066406 200.265625 C 195.925781 201.613281 203.742188 203.25 211.652344 204.230469 C 215.539062 204.710938 219.441406 205.015625 223.292969 205.722656 C 225.273438 206.089844 227.21875 206.597656 229.175781 207.054688 C 231.144531 207.523438 233.121094 207.964844 235.105469 208.359375 C 237.0625 208.75 239.035156 209.09375 240.976562 209.570312 C 242.9375 210.054688 244.875 210.609375 246.828125 211.125 C 248.792969 211.652344 250.773438 212.097656 252.710938 212.726562 C 253.644531 213.03125 254.570312 213.332031 255.503906 213.625 C 254.441406 213.664062 253.375 213.617188 252.3125 213.644531 C 249.359375 213.71875 246.410156 213.964844 243.464844 214.121094 C 237.558594 214.4375 231.605469 214.417969 225.726562 215.089844 C 220.085938 215.734375 214.535156 216.941406 208.929688 217.792969 C 203.058594 218.683594 197.152344 219.304688 191.230469 219.824219 C 188.28125 220.078125 185.332031 220.355469 182.390625 220.703125 C 181.097656 220.855469 179.800781 221.011719 178.519531 221.222656 C 177.386719 221.410156 176.238281 221.640625 175.082031 221.648438 C 174.863281 221.648438 174.640625 221.636719 174.421875 221.613281 C 174.457031 221.609375 174.488281 221.601562 174.523438 221.597656 C 174.640625 221.582031 174.726562 221.523438 174.789062 221.445312 C 174.566406 221.398438 174.351562 221.351562 174.121094 221.324219 C 174.074219 221.320312 174.023438 221.3125 173.976562 221.308594 C 173.898438 221.304688 173.835938 221.28125 173.777344 221.230469 C 173.738281 221.195312 173.71875 221.148438 173.707031 221.097656 C 173.554688 221.050781 173.40625 221.003906 173.257812 220.945312 C 173.210938 220.929688 173.167969 220.90625 173.128906 220.875 C 173.117188 220.855469 173.097656 220.839844 173.085938 220.820312 C 173.066406 220.789062 173.058594 220.746094 173.050781 220.710938 C 172.933594 220.609375 172.863281 220.449219 172.863281 220.203125 C 172.863281 219.535156 173.070312 218.863281 173.109375 218.191406 Z M 167.175781 243.898438 C 167.574219 241.851562 168.085938 239.835938 168.640625 237.828125 C 169.191406 235.8125 169.78125 233.816406 170.320312 231.800781 C 170.601562 230.765625 170.875 229.738281 171.175781 228.710938 C 171.460938 227.71875 171.792969 226.738281 172.085938 225.746094 C 172.347656 224.875 172.566406 223.996094 172.710938 223.09375 C 172.746094 222.863281 172.773438 222.632812 172.804688 222.386719 C 172.824219 222.398438 172.847656 222.414062 172.863281 222.429688 C 172.875 222.4375 173 222.53125 172.9375 222.484375 C 173.078125 222.59375 173.183594 222.679688 173.363281 222.730469 C 173.578125 222.789062 173.75 222.695312 173.851562 222.546875 C 174.941406 222.851562 176.09375 222.824219 177.238281 222.6875 C 177.167969 222.589844 177.160156 222.460938 177.234375 222.359375 C 177.3125 222.253906 177.464844 222.21875 177.582031 222.285156 C 177.640625 222.316406 177.695312 222.351562 177.753906 222.382812 C 177.824219 222.351562 177.90625 222.355469 177.976562 222.394531 C 177.980469 222.398438 177.980469 222.398438 177.984375 222.398438 C 178.066406 222.34375 178.179688 222.339844 178.265625 222.386719 C 178.347656 222.433594 178.4375 222.472656 178.523438 222.507812 C 178.972656 222.433594 179.421875 222.367188 179.867188 222.3125 C 182.796875 221.925781 185.75 221.644531 188.691406 221.402344 C 194.625 220.917969 200.539062 220.355469 206.4375 219.53125 C 212.109375 218.742188 217.714844 217.558594 223.378906 216.769531 C 229.199219 215.949219 235.109375 215.765625 240.976562 215.5 C 242.464844 215.429688 243.957031 215.355469 245.445312 215.265625 C 246.914062 215.179688 248.382812 215.027344 249.851562 214.992188 C 251.210938 214.953125 252.570312 214.972656 253.929688 215.027344 C 253.546875 215.109375 253.167969 215.1875 252.785156 215.261719 C 250.3125 215.738281 247.832031 216.15625 245.398438 216.820312 C 244.148438 217.164062 242.925781 217.589844 241.683594 217.941406 C 240.40625 218.296875 239.117188 218.609375 237.824219 218.910156 C 235.261719 219.492188 232.671875 219.988281 230.117188 220.601562 C 227.574219 221.214844 225.097656 222.042969 222.542969 222.601562 C 221.238281 222.886719 219.921875 223.085938 218.609375 223.320312 C 217.308594 223.554688 216.023438 223.867188 214.742188 224.191406 C 209.453125 225.53125 204.074219 226.484375 198.820312 227.964844 C 196.148438 228.714844 193.527344 229.640625 190.878906 230.484375 C 188.347656 231.292969 185.785156 232.058594 183.203125 232.664062 C 182.636719 232.792969 182.089844 232.96875 181.578125 233.238281 C 181.375 233.34375 181.273438 233.535156 181.257812 233.730469 C 181.003906 233.855469 180.753906 233.988281 180.515625 234.148438 C 179.988281 234.503906 179.503906 234.917969 179.039062 235.339844 C 177.964844 236.316406 176.855469 237.242188 175.78125 238.214844 C 173.300781 240.460938 170.949219 242.863281 168.660156 245.304688 C 168.027344 245.984375 167.40625 246.683594 166.757812 247.351562 C 166.625 247.488281 166.496094 247.621094 166.363281 247.757812 C 166.660156 246.480469 166.925781 245.195312 167.175781 243.898438 Z M 189.402344 241.570312 C 188.554688 241.738281 187.726562 241.984375 186.90625 242.242188 C 185.179688 242.777344 183.453125 243.292969 181.742188 243.863281 C 178.207031 245.027344 174.714844 246.304688 171.191406 247.484375 C 170.191406 247.824219 169.191406 248.15625 168.1875 248.472656 C 167.753906 248.609375 167.308594 248.726562 166.867188 248.859375 C 167.527344 248.078125 168.191406 247.304688 168.894531 246.550781 C 170.023438 245.34375 171.164062 244.148438 172.34375 242.988281 C 173.5 241.839844 174.683594 240.726562 175.894531 239.648438 C 177.03125 238.644531 178.203125 237.695312 179.320312 236.675781 C 179.800781 236.234375 180.292969 235.773438 180.8125 235.386719 C 181.058594 235.199219 181.316406 235.03125 181.59375 234.890625 C 181.71875 234.828125 181.769531 234.8125 181.933594 234.773438 C 181.941406 234.773438 181.941406 234.773438 181.949219 234.769531 C 181.957031 234.769531 181.96875 234.769531 182.007812 234.765625 C 182.054688 234.761719 182.089844 234.75 182.128906 234.738281 C 185.03125 236.582031 187.355469 239.152344 189.867188 241.488281 C 189.707031 241.515625 189.554688 241.542969 189.402344 241.570312 Z M 257.929688 215.820312 C 256.90625 216.261719 255.980469 216.796875 255.085938 217.46875 C 253.925781 218.339844 252.8125 219.265625 251.683594 220.179688 C 250.605469 221.050781 249.507812 221.910156 248.433594 222.785156 C 246.285156 224.527344 244.140625 226.289062 241.839844 227.839844 C 239.539062 229.394531 237.074219 230.699219 234.875 232.402344 C 232.59375 234.171875 230.238281 235.855469 228.003906 237.691406 C 225.808594 239.488281 223.519531 241.160156 221.234375 242.839844 C 219.339844 244.234375 217.5 245.683594 215.652344 247.140625 C 215.609375 247.179688 215.429688 247.316406 215.488281 247.269531 C 215.417969 247.320312 215.347656 247.382812 215.273438 247.433594 C 215.019531 247.628906 214.765625 247.828125 214.515625 248.03125 C 213.945312 248.480469 213.511719 248.816406 212.964844 249.226562 C 211.722656 250.152344 210.480469 251.074219 209.222656 251.984375 C 208.675781 252.382812 208.257812 252.703125 207.683594 253.121094 C 207.496094 253.261719 207.304688 253.398438 207.121094 253.53125 C 206.988281 253.445312 206.832031 253.398438 206.671875 253.417969 C 206.648438 253.402344 206.605469 253.367188 206.589844 253.355469 C 206.546875 253.320312 206.5 253.28125 206.460938 253.242188 C 206.195312 252.992188 205.957031 252.710938 205.726562 252.4375 C 205.171875 251.789062 204.550781 251.253906 203.886719 250.714844 C 202.082031 249.25 200.210938 247.867188 198.359375 246.464844 C 196.488281 245.050781 194.570312 243.667969 192.753906 242.1875 C 191.085938 240.832031 189.582031 239.304688 188.03125 237.820312 C 186.574219 236.429688 185.066406 235.09375 183.40625 233.964844 C 184.082031 233.789062 184.796875 233.695312 185.453125 233.492188 C 186.800781 233.074219 188.148438 232.6875 189.503906 232.292969 C 192.1875 231.503906 194.828125 230.574219 197.515625 229.785156 C 200.117188 229.023438 202.75 228.390625 205.390625 227.800781 C 208.042969 227.210938 210.71875 226.710938 213.359375 226.066406 C 214.660156 225.746094 215.953125 225.398438 217.261719 225.105469 C 218.558594 224.8125 219.871094 224.636719 221.175781 224.394531 C 223.75 223.921875 226.234375 223.113281 228.734375 222.371094 C 231.257812 221.625 233.828125 221.070312 236.402344 220.558594 C 238.960938 220.054688 241.53125 219.53125 244.027344 218.761719 C 246.425781 218.023438 248.882812 217.511719 251.347656 217.007812 C 253.804688 216.507812 256.238281 215.933594 258.675781 215.324219 C 258.785156 215.296875 258.890625 215.261719 259.003906 215.230469 C 258.652344 215.464844 258.300781 215.660156 257.929688 215.820312 Z M 257.929688 215.820312 " fill-opacity="1" fill-rule="nonzero"/></g></g></g><g clip-path="url(#9f18376f6c)"><g clip-path="url(#fd762e256d)"><g clip-path="url(#b6e4cd4988)"><path fill="#ffffff" d="M 66.179688 206.816406 C 66.382812 208.941406 66.789062 211.066406 67.386719 213.132812 L 65.820312 213.582031 C 65.203125 211.425781 64.777344 209.199219 64.558594 206.972656 Z M 76.230469 230.609375 C 77.875 232.152344 79.660156 233.542969 81.539062 234.75 L 82.417969 233.378906 C 80.621094 232.222656 78.917969 230.898438 77.347656 229.429688 Z M 68.25 219.851562 C 69.242188 221.859375 70.425781 223.789062 71.753906 225.585938 L 73.066406 224.613281 C 71.789062 222.890625 70.660156 221.042969 69.707031 219.125 Z M 65.707031 193.632812 C 65.113281 195.800781 64.710938 198.03125 64.519531 200.246094 L 66.144531 200.390625 C 66.328125 198.269531 66.710938 196.140625 67.28125 194.0625 Z M 122.605469 216.902344 L 123.839844 215.835938 C 122.296875 214.054688 119.855469 213.109375 117.242188 213.273438 L 117.34375 214.898438 C 119.445312 214.769531 121.390625 215.5 122.605469 216.902344 Z M 70.828125 185.464844 C 71.402344 184.4375 72.03125 183.414062 72.707031 182.414062 L 71.355469 181.503906 C 70.65625 182.539062 70 183.605469 69.402344 184.671875 C 68.914062 185.542969 68.457031 186.445312 68.039062 187.332031 L 69.515625 188.027344 C 69.914062 187.167969 70.359375 186.304688 70.828125 185.464844 Z M 113.503906 228.761719 C 115.128906 229.652344 117.246094 230.34375 119.976562 230.878906 L 120.292969 229.28125 C 117.726562 228.78125 115.761719 228.140625 114.289062 227.332031 Z M 130.648438 230.539062 C 129.117188 230.410156 127.878906 230.296875 126.742188 230.183594 L 126.578125 231.804688 C 127.726562 231.925781 128.976562 232.03125 130.511719 232.160156 C 131.375 232.234375 132.289062 232.269531 133.226562 232.277344 L 133.230469 230.648438 C 132.339844 230.644531 131.46875 230.605469 130.648438 230.539062 Z M 139.695312 230.203125 L 139.90625 231.820312 C 141.980469 231.550781 144.1875 231.152344 146.464844 230.644531 L 146.109375 229.050781 C 143.882812 229.550781 141.726562 229.9375 139.695312 230.203125 Z M 124.070312 222.503906 C 123.921875 224.46875 123.300781 226.523438 122.285156 228.445312 L 123.726562 229.210938 C 124.851562 227.085938 125.53125 224.808594 125.695312 222.621094 Z M 152.441406 227.398438 L 152.90625 228.957031 C 156.667969 227.84375 159.132812 226.878906 159.234375 226.835938 L 158.640625 225.320312 C 158.609375 225.328125 156.132812 226.296875 152.441406 227.398438 Z M 113.152344 236.871094 L 113.832031 238.355469 C 115.945312 237.382812 117.859375 236.117188 119.519531 234.605469 L 118.421875 233.398438 C 116.890625 234.800781 115.113281 235.96875 113.152344 236.871094 Z M 110.703125 220.820312 C 110.765625 219.925781 111.011719 219.09375 111.433594 218.339844 C 111.625 218 111.851562 217.671875 112.109375 217.375 L 110.871094 216.3125 C 110.546875 216.699219 110.253906 217.113281 110.007812 217.550781 C 109.46875 218.511719 109.15625 219.570312 109.070312 220.707031 C 109.007812 221.585938 109.046875 222.417969 109.1875 223.1875 L 110.789062 222.890625 C 110.679688 222.257812 110.648438 221.5625 110.703125 220.820312 Z M 91.214844 237.378906 C 90.175781 237.078125 89.136719 236.722656 88.128906 236.316406 L 87.527344 237.828125 C 88.585938 238.25 89.679688 238.625 90.765625 238.941406 C 91.84375 239.25 92.917969 239.527344 93.960938 239.753906 L 94.308594 238.160156 C 93.300781 237.949219 92.261719 237.679688 91.214844 237.378906 Z M 100.6875 239.042969 L 100.605469 240.671875 C 102.941406 240.792969 105.210938 240.667969 107.34375 240.316406 L 107.074219 238.710938 C 105.058594 239.042969 102.910156 239.15625 100.6875 239.042969 Z M 100.6875 239.042969 " fill-opacity="1" fill-rule="nonzero"/></g></g></g><g fill="#ffffff" fill-opacity="1"><g transform="translate(77.212165, 182.060909)"><g><path d="M 15 -34.578125 L 6.328125 -34.578125 C 5.625 -34.578125 4.984375 -34.28125 4.515625 -33.8125 C 4.046875 -33.28125 3.8125 -32.703125 3.8125 -32 L 3.8125 -2.578125 C 3.8125 -1.875 4.046875 -1.234375 4.515625 -0.765625 C 4.984375 -0.234375 5.625 0 6.328125 0 L 15.703125 0 C 17.046875 0 18.40625 -0.125 19.75 -0.46875 C 21.09375 -0.765625 22.5 -1.34375 23.96875 -2.171875 C 25.4375 -2.984375 26.71875 -4.046875 27.828125 -5.328125 C 28.890625 -6.625 29.828125 -8.328125 30.53125 -10.484375 C 31.234375 -12.65625 31.578125 -15.125 31.578125 -17.9375 C 31.578125 -20.859375 31.0625 -23.5 30.0625 -25.71875 C 29 -27.953125 27.65625 -29.703125 26.015625 -30.9375 C 24.375 -32.171875 22.625 -33.109375 20.75 -33.6875 C 18.875 -34.28125 17 -34.578125 15 -34.578125 Z M 14.9375 -4.8125 L 8.90625 -4.8125 L 8.90625 -29.765625 L 15.125 -29.765625 C 18.34375 -29.765625 21.03125 -28.765625 23.203125 -26.890625 C 25.375 -24.96875 26.484375 -21.921875 26.484375 -17.75 C 26.484375 -15.53125 26.1875 -13.53125 25.671875 -11.890625 C 25.140625 -10.25 24.5 -8.96875 23.796875 -8.09375 C 23.03125 -7.203125 22.09375 -6.5 20.984375 -5.984375 C 19.8125 -5.453125 18.8125 -5.09375 17.9375 -4.984375 C 17 -4.859375 16 -4.8125 14.9375 -4.8125 Z M 14.9375 -4.8125 "/></g></g></g><g fill="#ffffff" fill-opacity="1"><g transform="translate(109.96423, 182.060909)"><g><path d="M 29.125 -3.28125 L 28.59375 -4.921875 C 27.890625 -7.09375 27.1875 -8.84375 26.546875 -10.140625 C 25.90625 -11.421875 25.015625 -12.59375 23.84375 -13.765625 C 25.4375 -14.1875 26.71875 -15.0625 27.71875 -16.34375 C 28.65625 -17.640625 29.296875 -18.875 29.59375 -20.09375 C 29.890625 -21.265625 30.0625 -22.5 30.0625 -23.671875 C 30.0625 -27.359375 29 -30.125 26.890625 -31.875 C 24.78125 -33.640625 22.328125 -34.578125 19.515625 -34.578125 L 6.328125 -34.578125 C 5.625 -34.578125 4.984375 -34.28125 4.515625 -33.8125 C 4.046875 -33.28125 3.8125 -32.703125 3.8125 -32 L 3.8125 -2.578125 C 3.8125 -1.875 4.046875 -1.234375 4.515625 -0.765625 C 4.984375 -0.234375 5.625 0 6.328125 0 C 7.03125 0 7.625 -0.234375 8.140625 -0.765625 C 8.609375 -1.234375 8.90625 -1.875 8.90625 -2.578125 L 8.90625 -12.1875 L 16.578125 -12.1875 C 19.515625 -12.1875 21.625 -10.078125 22.96875 -5.984375 L 24.375 -1.640625 C 24.734375 -0.53125 25.484375 0 26.71875 0 C 27.359375 0 27.953125 -0.234375 28.484375 -0.703125 C 28.953125 -1.171875 29.234375 -1.765625 29.234375 -2.46875 C 29.234375 -2.8125 29.1875 -3.046875 29.125 -3.28125 Z M 19.046875 -17 L 8.90625 -17 L 8.90625 -29.765625 L 19.046875 -29.765625 C 20.796875 -29.765625 22.265625 -29.296875 23.328125 -28.484375 C 24.375 -27.65625 24.96875 -26.015625 24.96875 -23.609375 C 24.96875 -22.03125 24.78125 -20.75 24.5 -19.8125 C 24.140625 -18.875 23.671875 -18.171875 22.96875 -17.8125 C 22.265625 -17.46875 21.6875 -17.234375 21.21875 -17.109375 C 20.6875 -17 19.984375 -17 19.046875 -17 Z M 19.046875 -17 "/></g></g></g><g fill="#ffffff" fill-opacity="1"><g transform="translate(140.607031, 182.060909)"><g><path d="M 8.90625 -19.046875 L 8.90625 -29.765625 L 24.5 -29.765625 C 25.140625 -29.765625 25.71875 -30 26.1875 -30.46875 C 26.65625 -30.9375 26.890625 -31.46875 26.890625 -32.171875 C 26.890625 -32.8125 26.65625 -33.40625 26.1875 -33.875 C 25.71875 -34.34375 25.140625 -34.578125 24.5 -34.578125 L 6.328125 -34.578125 C 5.625 -34.578125 4.984375 -34.28125 4.515625 -33.8125 C 4.046875 -33.28125 3.8125 -32.703125 3.8125 -32 L 3.8125 -2.578125 C 3.8125 -1.875 4.046875 -1.234375 4.515625 -0.765625 C 4.984375 -0.234375 5.625 0 6.328125 0 L 24.5 0 C 25.140625 0 25.71875 -0.234375 26.1875 -0.703125 C 26.65625 -1.171875 26.890625 -1.703125 26.890625 -2.40625 C 26.890625 -3.046875 26.65625 -3.640625 26.1875 -4.109375 C 25.71875 -4.578125 25.140625 -4.8125 24.5 -4.8125 L 8.90625 -4.8125 L 8.90625 -14.234375 L 21.21875 -14.234375 C 21.859375 -14.234375 22.4375 -14.46875 22.90625 -14.9375 C 23.375 -15.40625 23.609375 -15.9375 23.609375 -16.640625 C 23.609375 -17.28125 23.375 -17.875 22.90625 -18.34375 C 22.4375 -18.8125 21.859375 -19.046875 21.21875 -19.046875 Z M 8.90625 -19.046875 "/></g></g></g><g fill="#ffffff" fill-opacity="1"><g transform="translate(168.964794, 182.060909)"><g><path d="M 16.703125 -34.578125 C 15.703125 -34.578125 14.828125 -34.28125 14.0625 -33.8125 C 13.296875 -33.28125 12.78125 -32.578125 12.484375 -31.765625 L 1.9375 -3.515625 C 1.8125 -3.171875 1.765625 -2.875 1.765625 -2.515625 C 1.765625 -1.765625 2 -1.171875 2.46875 -0.703125 C 2.9375 -0.234375 3.515625 0 4.28125 0 C 5.515625 0 6.328125 -0.53125 6.734375 -1.578125 L 9.140625 -8.140625 L 24.3125 -8.140625 L 26.71875 -1.578125 C 27.078125 -0.53125 27.890625 0 29.1875 0 C 29.890625 0 30.53125 -0.234375 31 -0.703125 C 31.46875 -1.171875 31.703125 -1.765625 31.703125 -2.515625 C 31.703125 -2.875 31.640625 -3.171875 31.53125 -3.515625 L 20.984375 -31.765625 C 20.625 -32.578125 20.09375 -33.28125 19.34375 -33.8125 C 18.515625 -34.28125 17.640625 -34.578125 16.703125 -34.578125 Z M 10.953125 -12.953125 L 16.703125 -28.59375 L 22.5 -12.953125 Z M 10.953125 -12.953125 "/></g></g></g><g fill="#ffffff" fill-opacity="1"><g transform="translate(200.662224, 182.060909)"><g><path d="M 20.09375 -7.734375 C 21.5 -7.734375 22.625 -8.328125 23.4375 -9.609375 L 31.296875 -22.15625 L 31.296875 -2.578125 C 31.296875 -1.875 31.53125 -1.234375 32.046875 -0.765625 C 32.515625 -0.234375 33.171875 0 33.875 0 C 34.578125 0 35.15625 -0.234375 35.625 -0.765625 C 36.09375 -1.234375 36.390625 -1.875 36.390625 -2.578125 L 36.390625 -32.34375 C 36.390625 -32.9375 36.15625 -33.453125 35.75 -33.921875 C 35.28125 -34.34375 34.75 -34.578125 34.15625 -34.578125 C 33.34375 -34.578125 32.75 -34.21875 32.28125 -33.578125 L 20.09375 -13.828125 L 7.90625 -33.578125 C 7.4375 -34.21875 6.796875 -34.578125 6.03125 -34.578125 C 5.390625 -34.578125 4.859375 -34.34375 4.453125 -33.921875 C 3.984375 -33.453125 3.8125 -32.9375 3.8125 -32.34375 L 3.8125 -2.578125 C 3.8125 -1.875 4.046875 -1.234375 4.515625 -0.765625 C 4.984375 -0.234375 5.625 0 6.328125 0 C 7.03125 0 7.625 -0.234375 8.140625 -0.765625 C 8.609375 -1.234375 8.90625 -1.875 8.90625 -2.578125 L 8.90625 -22.15625 L 16.765625 -9.609375 C 17.515625 -8.328125 18.640625 -7.734375 20.09375 -7.734375 Z M 20.09375 -7.734375 "/></g></g></g><g fill="#ffffff" fill-opacity="1"><g transform="translate(239.097583, 182.060909)"><g/></g></g><g fill="#ffffff" fill-opacity="1"><g transform="translate(248.999254, 182.060909)"><g><path d="M 20.09375 -7.734375 C 21.5 -7.734375 22.625 -8.328125 23.4375 -9.609375 L 31.296875 -22.15625 L 31.296875 -2.578125 C 31.296875 -1.875 31.53125 -1.234375 32.046875 -0.765625 C 32.515625 -0.234375 33.171875 0 33.875 0 C 34.578125 0 35.15625 -0.234375 35.625 -0.765625 C 36.09375 -1.234375 36.390625 -1.875 36.390625 -2.578125 L 36.390625 -32.34375 C 36.390625 -32.9375 36.15625 -33.453125 35.75 -33.921875 C 35.28125 -34.34375 34.75 -34.578125 34.15625 -34.578125 C 33.34375 -34.578125 32.75 -34.21875 32.28125 -33.578125 L 20.09375 -13.828125 L 7.90625 -33.578125 C 7.4375 -34.21875 6.796875 -34.578125 6.03125 -34.578125 C 5.390625 -34.578125 4.859375 -34.34375 4.453125 -33.921875 C 3.984375 -33.453125 3.8125 -32.9375 3.8125 -32.34375 L 3.8125 -2.578125 C 3.8125 -1.875 4.046875 -1.234375 4.515625 -0.765625 C 4.984375 -0.234375 5.625 0 6.328125 0 C 7.03125 0 7.625 -0.234375 8.140625 -0.765625 C 8.609375 -1.234375 8.90625 -1.875 8.90625 -2.578125 L 8.90625 -22.15625 L 16.765625 -9.609375 C 17.515625 -8.328125 18.640625 -7.734375 20.09375 -7.734375 Z M 20.09375 -7.734375 "/></g></g></g><g fill="#ffffff" fill-opacity="1"><g transform="translate(287.434613, 182.060909)"><g><path d="M 16.703125 -34.578125 C 15.703125 -34.578125 14.828125 -34.28125 14.0625 -33.8125 C 13.296875 -33.28125 12.78125 -32.578125 12.484375 -31.765625 L 1.9375 -3.515625 C 1.8125 -3.171875 1.765625 -2.875 1.765625 -2.515625 C 1.765625 -1.765625 2 -1.171875 2.46875 -0.703125 C 2.9375 -0.234375 3.515625 0 4.28125 0 C 5.515625 0 6.328125 -0.53125 6.734375 -1.578125 L 9.140625 -8.140625 L 24.3125 -8.140625 L 26.71875 -1.578125 C 27.078125 -0.53125 27.890625 0 29.1875 0 C 29.890625 0 30.53125 -0.234375 31 -0.703125 C 31.46875 -1.171875 31.703125 -1.765625 31.703125 -2.515625 C 31.703125 -2.875 31.640625 -3.171875 31.53125 -3.515625 L 20.984375 -31.765625 C 20.625 -32.578125 20.09375 -33.28125 19.34375 -33.8125 C 18.515625 -34.28125 17.640625 -34.578125 16.703125 -34.578125 Z M 10.953125 -12.953125 L 16.703125 -28.59375 L 22.5 -12.953125 Z M 10.953125 -12.953125 "/></g></g></g><g fill="#ffffff" fill-opacity="1"><g transform="translate(319.132036, 182.060909)"><g><path d="M 3.8125 -32 L 3.8125 -2.578125 C 3.8125 -1.875 4.046875 -1.234375 4.515625 -0.765625 C 4.984375 -0.234375 5.625 0 6.328125 0 C 7.03125 0 7.625 -0.234375 8.140625 -0.765625 C 8.609375 -1.234375 8.90625 -1.875 8.90625 -2.578125 L 8.90625 -32 C 8.90625 -32.703125 8.609375 -33.28125 8.140625 -33.8125 C 7.625 -34.28125 7.03125 -34.578125 6.328125 -34.578125 C 5.625 -34.578125 4.984375 -34.28125 4.515625 -33.8125 C 4.046875 -33.28125 3.8125 -32.703125 3.8125 -32 Z M 3.8125 -32 "/></g></g></g><g fill="#ffffff" fill-opacity="1"><g transform="translate(330.088346, 182.060909)"><g><path d="M 6.328125 0 L 23.140625 0 C 23.796875 0 24.375 -0.234375 24.84375 -0.703125 C 25.3125 -1.171875 25.546875 -1.703125 25.546875 -2.40625 C 25.546875 -3.046875 25.3125 -3.640625 24.84375 -4.109375 C 24.375 -4.578125 23.796875 -4.8125 23.140625 -4.8125 L 8.90625 -4.8125 L 8.90625 -32 C 8.90625 -32.703125 8.609375 -33.28125 8.140625 -33.8125 C 7.625 -34.28125 7.03125 -34.578125 6.328125 -34.578125 C 5.625 -34.578125 4.984375 -34.28125 4.515625 -33.8125 C 4.046875 -33.28125 3.8125 -32.703125 3.8125 -32 L 3.8125 -2.578125 C 3.8125 -1.875 4.046875 -1.234375 4.515625 -0.765625 C 4.984375 -0.234375 5.625 0 6.328125 0 Z M 6.328125 0 "/></g></g></g></svg>